#define 1534609149031_width 19
#define 1534609149031_height 15
static char 1534609149031_bits[] = {
  0x00, 0x00, 0x00, 0x02, 0x00, 0x01, 0x04, 0x80, 0x00, 0x88, 0x47, 0x00, 
  0x40, 0x08, 0x00, 0x20, 0x10, 0x00, 0xA7, 0x17, 0x07, 0x20, 0x13, 0x00, 
  0x40, 0x0B, 0x00, 0x40, 0x4B, 0x00, 0x88, 0x87, 0x00, 0x84, 0x04, 0x01, 
  0x82, 0x04, 0x00, 0x80, 0x07, 0x00, 0x00, 0x03, 0x00, };
