#define 1534609156222_width 11
#define 1534609156222_height 11
static char 1534609156222_bits[] = {
  0x50, 0x00, 0x74, 0x01, 0x24, 0x01, 0x27, 0x07, 0xA8, 0x00, 0x70, 0x00, 
  0xA8, 0x00, 0x27, 0x07, 0x24, 0x01, 0x74, 0x01, 0x50, 0x00, };
