#define 1cd157b24997475ec8235d643e97c874_width 24
#define 1cd157b24997475ec8235d643e97c874_height 5
static char 1cd157b24997475ec8235d643e97c874_bits[] = {
  0xC7, 0x66, 0xEE, 0xC8, 0x96, 0x44, 0x57, 0x95, 0x44, 0x54, 0xD4, 0x44, 
  0x55, 0xE4, 0x44, };
