#define cdd97742af094e99f1750ab34a927a92_width 13
#define cdd97742af094e99f1750ab34a927a92_height 13
static char cdd97742af094e99f1750ab34a927a92_bits[] = {
  0xFF, 0x1F, 0xFF, 0x1F, 0x00, 0x18, 0x00, 0x1B, 0x80, 0x1B, 0xC0, 0x19, 
  0xE0, 0x18, 0x70, 0x18, 0x38, 0x18, 0x1C, 0x18, 0x0C, 0x18, 0x00, 0x18, 
  0x00, 0x18, };
