#define 1535279451263_width 13
#define 1535279451263_height 13
static char 1535279451263_bits[] = {
  0xFF, 0x1F, 0xFF, 0x1F, 0x00, 0x18, 0x01, 0x18, 0x01, 0x18, 0x01, 0x18, 
  0x03, 0x18, 0x02, 0x18, 0x06, 0x18, 0x0C, 0x18, 0x18, 0x18, 0x70, 0x18, 
  0xC0, 0x1B, };
