#define 461bd17ef47249d4c8f8d97611ced046_width 29
#define 461bd17ef47249d4c8f8d97611ced046_height 13
static char 461bd17ef47249d4c8f8d97611ced046_bits[] = {
  0xF8, 0xFF, 0xFF, 0x03, 0xFE, 0xFF, 0xFF, 0x0F, 0xFE, 0xFF, 0x01, 0x0C, 
  0xB7, 0xE5, 0xBE, 0x19, 0xA7, 0x7C, 0x3E, 0x18, 0xA7, 0x64, 0x86, 0x19, 
  0x07, 0x64, 0xBE, 0x19, 0x4F, 0x66, 0xBE, 0x19, 0x4F, 0x26, 0x86, 0x19, 
  0xEF, 0x26, 0x86, 0x19, 0xFE, 0x3F, 0x00, 0x0C, 0xFE, 0xFF, 0xFF, 0x0F, 
  0xF8, 0xFF, 0xFF, 0x03, };
